<svg xmlns="http://www.w3.org/2000/svg" viewBox="0 0 46.32 11.28"><defs><style>.cls-1{fill-rule:evenodd;}</style></defs><title>Asset 1</title><g id="Layer_2" data-name="Layer 2"><g id="Layer_1-2" data-name="Layer 1"><polygon points="12.72 0 15.12 0 20.4 7.2 20.4 0 22.8 0 22.8 11.28 20.4 11.28 15.12 4.08 15.12 11.28 12.72 11.28 12.72 0"/><path d="M34.56,11.28l1-2.4h9.84l1,2.4Zm2.64,0H34.56L38.88,0h2.64L37.2,11.28Zm6.48,0L39.36,0H42l4.32,11.28Z"/><path class="cls-1" d="M28.92,11.28H24.48V0h4.44a5.64,5.64,0,0,1,0,11.28Zm0-8.88h-2V8.88h2a3.24,3.24,0,0,0,0-6.48Z"/><path class="cls-1" d="M5.64,11.28a5.64,5.64,0,1,1,5.64-5.64,5.64,5.64,0,0,1-5.64,5.64Zm0-8.88A3.24,3.24,0,1,0,8.88,5.64,3.24,3.24,0,0,0,5.64,2.4Z"/></g></g></svg>